# xmcd
#
# Track frame offsets:
#	187
#	9375
#	22337
#	36187
#	41625
#	53700
#	64800
#	87450
#	100425
#	109875
#	128250
#	138825
#	147300
#	160650
#	170812
#	181275
#	194925
#	207937
#	218437
#	230287
#	249112
#	265800
#	279712
#	297075
#
# Disc length: 4086 seconds
# Revision: 4
# Processed by: cddbd v1.5.2PL0 Copyright (c) Steve Scherf et al.
# Submitted via: dBpowerAMP V12.0
#
DISCID=610ff418
DTITLE=Various Artist - Son of Rounder Banjo
DYEAR=1992
DGENRE=Country
TTITLE0=Tom Adams - Adams County Breakdown
TTITLE1=Alan O'Bryant - No Hiding Place
TTITLE2=Scott Vestal - Wired
TTITLE3=Snuffy Jenkins - Careless Love
TTITLE4=Alan Munde - Blackberry Blossom
TTITLE5=Alison Brown - Will You Be Leaving
TTITLE6=John Hartford - Pea Patch Jig
TTITLE7=John Hickman - Dixie Breakdown
TTITLE8=Karl Lauber - Cold Wind
TTITLE9=Béla Fleck - See Rock City
TTITLE10=J.D. Crowe - I'm Walkin'
TTITLE11=Billy Ray Latham - Kickin' Mule
TTITLE12=William J. Ball - Syncopatin' Shuffle
TTITLE13=Tony Trischka - Armadillo Breakdown
TTITLE14=Frank Necessary - Blue Eyed Darlin'
TTITLE15=Bill Keith - Nola
TTITLE16=Bill Emerson - Don't Think Twice, It's All Right
TTITLE17=Church Porter - My Aching Heart
TTITLE18=Allen Shelton - Chicken Reel
TTITLE19=Butch Robins - 12 O'Clock, Eh Sonny?
TTITLE20=Tommy Neal - John Hardy
TTITLE21=Herb Pedersen - Georgia Rose
TTITLE22=Tony Trischka - Stoli's Best Friend
TTITLE23=Marc Pruett - Lost and I'll Never Find the Way
EXTD=
EXTT0=
EXTT1=
EXTT2=
EXTT3=
EXTT4=
EXTT5=
EXTT6=
EXTT7=
EXTT8=
EXTT9=
EXTT10=
EXTT11=
EXTT12=
EXTT13=
EXTT14=
EXTT15=
EXTT16=
EXTT17=
EXTT18=
EXTT19=
EXTT20=
EXTT21=
EXTT22=
EXTT23=
PLAYORDER=
